# xmcd
#
# Track frame offsets:
#	150
#	19063
#	38274
#	55431
#	72680
#	84991
#	101506
#	112655
#	124895
#	143095
#	158134
#	171446
#
# Disc length: 2479 seconds
#
# Revision: 2
# Processed by: cddbd v1.5.2PL0 Copyright (c) Steve Scherf et al.
# Submitted via: audiograbber 1.83.01
#
DISCID=9909ad0c
DTITLE=Omar Kent Dykes - Big Town Playboy
DYEAR=2009
DGENRE=Blues
TTITLE0=Big Town Playboy
TTITLE1=Upside Your Head
TTITLE2=Can't Judge Nobody
TTITLE3=Think
TTITLE4=Mary, Mary
TTITLE5=No More Doggin'
TTITLE6=Hello Mary Lee
TTITLE7=Close Together
TTITLE8=Dream Girl
TTITLE9=Since I Met You Baby
TTITLE10=Man Down There
TTITLE11=King Bee 
EXTD=
EXTT0=
EXTT1=
EXTT2=
EXTT3=
EXTT4=
EXTT5=
EXTT6=
EXTT7=
EXTT8=
EXTT9=
EXTT10=
EXTT11=
PLAYORDER=
